<mxfile host="app.diagrams.net" agent="Mozilla/5.0 (Windows NT 10.0; Win64; x64) AppleWebKit/537.36 (KHTML, like Gecko) Chrome/137.0.0.0 Safari/537.36" version="27.1.4">
  <diagram name="Página-1" id="UMtj5xjudxrgKfKB_ZxX">
    <mxGraphModel grid="1" page="1" gridSize="10" guides="1" tooltips="1" connect="1" arrows="1" fold="1" pageScale="1" pageWidth="827" pageHeight="1169" background="none" math="0" shadow="0">
      <root>
        <mxCell id="0" />
        <mxCell id="1" parent="0" />
        <mxCell id="Nqwm3EvhNHWY8KDwzce0-4" value="Administrador&lt;br&gt;(Admin Total)&lt;br&gt;&lt;div&gt;&lt;br&gt;&lt;/div&gt;" style="shape=umlActor;verticalLabelPosition=bottom;verticalAlign=top;html=1;fontSize=15;" vertex="1" parent="1">
          <mxGeometry x="71.5" y="40" width="40" height="70" as="geometry" />
        </mxCell>
        <mxCell id="Nqwm3EvhNHWY8KDwzce0-9" value="" style="rounded=0;whiteSpace=wrap;html=1;" vertex="1" parent="1">
          <mxGeometry x="230" y="10" width="540" height="1140" as="geometry" />
        </mxCell>
        <mxCell id="Nqwm3EvhNHWY8KDwzce0-10" value="&lt;font style=&quot;font-size: 16px;&quot;&gt;Cadastro e edição de pacientes&amp;nbsp;&lt;/font&gt;" style="ellipse;whiteSpace=wrap;html=1;" vertex="1" parent="1">
          <mxGeometry x="374.5" y="690" width="167" height="80" as="geometry" />
        </mxCell>
        <mxCell id="Nqwm3EvhNHWY8KDwzce0-12" value="&lt;font style=&quot;font-size: 16px;&quot;&gt;Agendar consulta&lt;/font&gt;" style="ellipse;whiteSpace=wrap;html=1;" vertex="1" parent="1">
          <mxGeometry x="374" y="390" width="116" height="70" as="geometry" />
        </mxCell>
        <mxCell id="Nqwm3EvhNHWY8KDwzce0-14" value="&lt;span style=&quot;font-size: 16px;&quot;&gt;Emitir Prescrição&lt;/span&gt;" style="ellipse;whiteSpace=wrap;html=1;" vertex="1" parent="1">
          <mxGeometry x="373" y="1030" width="175" height="72.5" as="geometry" />
        </mxCell>
        <mxCell id="Nqwm3EvhNHWY8KDwzce0-18" value="&lt;font style=&quot;font-size: 16px;&quot;&gt;Acessar informações basicas do prontuário&lt;/font&gt;" style="ellipse;whiteSpace=wrap;html=1;" vertex="1" parent="1">
          <mxGeometry x="374.75" y="580" width="175.25" height="80" as="geometry" />
        </mxCell>
        <mxCell id="Nqwm3EvhNHWY8KDwzce0-24" value="" style="endArrow=classic;html=1;rounded=0;exitX=0.5;exitY=0.5;exitDx=0;exitDy=0;exitPerimeter=0;" edge="1" parent="1" source="Nqwm3EvhNHWY8KDwzce0-63" target="Nqwm3EvhNHWY8KDwzce0-12">
          <mxGeometry width="50" height="50" relative="1" as="geometry">
            <mxPoint x="90.75" y="405" as="sourcePoint" />
            <mxPoint x="40" y="360" as="targetPoint" />
          </mxGeometry>
        </mxCell>
        <mxCell id="Nqwm3EvhNHWY8KDwzce0-25" value="" style="endArrow=classic;html=1;rounded=0;entryX=0;entryY=0.5;entryDx=0;entryDy=0;exitX=0.5;exitY=0.5;exitDx=0;exitDy=0;exitPerimeter=0;" edge="1" parent="1" source="Nqwm3EvhNHWY8KDwzce0-63" target="Nqwm3EvhNHWY8KDwzce0-17">
          <mxGeometry width="50" height="50" relative="1" as="geometry">
            <mxPoint x="90.75" y="405" as="sourcePoint" />
            <mxPoint x="389.05999999999995" y="493.82000000000016" as="targetPoint" />
          </mxGeometry>
        </mxCell>
        <mxCell id="Nqwm3EvhNHWY8KDwzce0-30" value="&lt;span style=&quot;font-size: 16px;&quot;&gt;Registrar consulta&lt;/span&gt;" style="ellipse;whiteSpace=wrap;html=1;" vertex="1" parent="1">
          <mxGeometry x="373" y="780" width="177" height="65" as="geometry" />
        </mxCell>
        <mxCell id="Nqwm3EvhNHWY8KDwzce0-31" value="&lt;span style=&quot;font-size: 16px;&quot;&gt;Gerenciar prontuário&lt;/span&gt;" style="ellipse;whiteSpace=wrap;html=1;" vertex="1" parent="1">
          <mxGeometry x="380.25" y="940" width="158.5" height="70" as="geometry" />
        </mxCell>
        <mxCell id="Nqwm3EvhNHWY8KDwzce0-33" value="" style="endArrow=classic;html=1;rounded=0;entryX=0;entryY=0.5;entryDx=0;entryDy=0;exitX=0.5;exitY=0.5;exitDx=0;exitDy=0;exitPerimeter=0;" edge="1" parent="1" source="Nqwm3EvhNHWY8KDwzce0-50" target="Nqwm3EvhNHWY8KDwzce0-30">
          <mxGeometry width="50" height="50" relative="1" as="geometry">
            <mxPoint x="90.5" y="715" as="sourcePoint" />
            <mxPoint x="140.5" y="665" as="targetPoint" />
          </mxGeometry>
        </mxCell>
        <mxCell id="Nqwm3EvhNHWY8KDwzce0-35" value="" style="endArrow=classic;html=1;rounded=0;entryX=0;entryY=0.5;entryDx=0;entryDy=0;exitX=0.5;exitY=0.5;exitDx=0;exitDy=0;exitPerimeter=0;" edge="1" parent="1" source="Nqwm3EvhNHWY8KDwzce0-50" target="Nqwm3EvhNHWY8KDwzce0-31">
          <mxGeometry width="50" height="50" relative="1" as="geometry">
            <mxPoint x="90.5" y="715" as="sourcePoint" />
            <mxPoint x="140.5" y="665" as="targetPoint" />
          </mxGeometry>
        </mxCell>
        <mxCell id="Nqwm3EvhNHWY8KDwzce0-36" value="" style="endArrow=classic;html=1;rounded=0;entryX=0;entryY=0.5;entryDx=0;entryDy=0;exitX=0.5;exitY=0.5;exitDx=0;exitDy=0;exitPerimeter=0;" edge="1" parent="1" source="Nqwm3EvhNHWY8KDwzce0-50" target="Nqwm3EvhNHWY8KDwzce0-14">
          <mxGeometry width="50" height="50" relative="1" as="geometry">
            <mxPoint x="90.5" y="715" as="sourcePoint" />
            <mxPoint x="140.5" y="665" as="targetPoint" />
          </mxGeometry>
        </mxCell>
        <mxCell id="Nqwm3EvhNHWY8KDwzce0-37" value="" style="endArrow=classic;html=1;rounded=0;entryX=0;entryY=0.5;entryDx=0;entryDy=0;exitX=0.5;exitY=0.5;exitDx=0;exitDy=0;exitPerimeter=0;" edge="1" parent="1" source="Nqwm3EvhNHWY8KDwzce0-50" target="Nqwm3EvhNHWY8KDwzce0-10">
          <mxGeometry width="50" height="50" relative="1" as="geometry">
            <mxPoint x="90.5" y="715" as="sourcePoint" />
            <mxPoint x="140.5" y="665" as="targetPoint" />
          </mxGeometry>
        </mxCell>
        <mxCell id="Nqwm3EvhNHWY8KDwzce0-41" value="" style="endArrow=classic;html=1;rounded=0;entryX=0;entryY=0.5;entryDx=0;entryDy=0;exitX=0.5;exitY=0.5;exitDx=0;exitDy=0;exitPerimeter=0;" edge="1" parent="1" source="Nqwm3EvhNHWY8KDwzce0-63" target="Nqwm3EvhNHWY8KDwzce0-18">
          <mxGeometry width="50" height="50" relative="1" as="geometry">
            <mxPoint x="90.75" y="405" as="sourcePoint" />
            <mxPoint x="373.5" y="531" as="targetPoint" />
          </mxGeometry>
        </mxCell>
        <mxCell id="Nqwm3EvhNHWY8KDwzce0-42" value="&lt;font style=&quot;font-size: 16px;&quot;&gt;Gerenciar usuários e permissões&lt;/font&gt;" style="ellipse;whiteSpace=wrap;html=1;" vertex="1" parent="1">
          <mxGeometry x="364" y="30" width="120" height="80" as="geometry" />
        </mxCell>
        <mxCell id="Nqwm3EvhNHWY8KDwzce0-43" value="&lt;font style=&quot;font-size: 16px;&quot;&gt;Gerenciar suprimentos&lt;/font&gt;" style="ellipse;whiteSpace=wrap;html=1;" vertex="1" parent="1">
          <mxGeometry x="364" y="120" width="120" height="80" as="geometry" />
        </mxCell>
        <mxCell id="Nqwm3EvhNHWY8KDwzce0-44" value="&lt;font style=&quot;font-size: 16px;&quot;&gt;Gerenciar relatórios financeiros&lt;/font&gt;" style="ellipse;whiteSpace=wrap;html=1;" vertex="1" parent="1">
          <mxGeometry x="364" y="210" width="120" height="80" as="geometry" />
        </mxCell>
        <mxCell id="Nqwm3EvhNHWY8KDwzce0-45" value="" style="endArrow=classic;html=1;rounded=0;exitX=0.5;exitY=0.5;exitDx=0;exitDy=0;exitPerimeter=0;" edge="1" parent="1" source="Nqwm3EvhNHWY8KDwzce0-4">
          <mxGeometry width="50" height="50" relative="1" as="geometry">
            <mxPoint x="314" y="120" as="sourcePoint" />
            <mxPoint x="364" y="70" as="targetPoint" />
          </mxGeometry>
        </mxCell>
        <mxCell id="Nqwm3EvhNHWY8KDwzce0-46" value="" style="endArrow=classic;html=1;rounded=0;exitX=0.5;exitY=0.5;exitDx=0;exitDy=0;exitPerimeter=0;entryX=0;entryY=0.5;entryDx=0;entryDy=0;" edge="1" parent="1" source="Nqwm3EvhNHWY8KDwzce0-4" target="Nqwm3EvhNHWY8KDwzce0-43">
          <mxGeometry width="50" height="50" relative="1" as="geometry">
            <mxPoint x="125" y="50" as="sourcePoint" />
            <mxPoint x="364" y="70" as="targetPoint" />
          </mxGeometry>
        </mxCell>
        <mxCell id="Nqwm3EvhNHWY8KDwzce0-47" value="" style="endArrow=classic;html=1;rounded=0;exitX=0.5;exitY=0.5;exitDx=0;exitDy=0;exitPerimeter=0;entryX=0;entryY=0.5;entryDx=0;entryDy=0;" edge="1" parent="1" source="Nqwm3EvhNHWY8KDwzce0-4" target="Nqwm3EvhNHWY8KDwzce0-44">
          <mxGeometry width="50" height="50" relative="1" as="geometry">
            <mxPoint x="125" y="50" as="sourcePoint" />
            <mxPoint x="364" y="160" as="targetPoint" />
          </mxGeometry>
        </mxCell>
        <mxCell id="Nqwm3EvhNHWY8KDwzce0-17" value="&lt;font style=&quot;font-size: 16px;&quot;&gt;Visualizar agendamentos&lt;/font&gt;" style="ellipse;whiteSpace=wrap;html=1;" vertex="1" parent="1">
          <mxGeometry x="374.75" y="480" width="125.25" height="85" as="geometry" />
        </mxCell>
        <mxCell id="Nqwm3EvhNHWY8KDwzce0-50" value="&lt;div&gt;Profissional&amp;nbsp;&lt;/div&gt;&lt;div&gt;da&amp;nbsp;&lt;/div&gt;&lt;div&gt;Saúde&lt;/div&gt;&lt;div&gt;&lt;br&gt;&lt;/div&gt;" style="shape=umlActor;verticalLabelPosition=bottom;verticalAlign=top;html=1;fontSize=15;align=center;" vertex="1" parent="1">
          <mxGeometry x="71.5" y="680" width="40" height="70" as="geometry" />
        </mxCell>
        <mxCell id="Nqwm3EvhNHWY8KDwzce0-53" style="edgeStyle=orthogonalEdgeStyle;rounded=0;orthogonalLoop=1;jettySize=auto;html=1;exitX=0.5;exitY=1;exitDx=0;exitDy=0;" edge="1" parent="1" source="Nqwm3EvhNHWY8KDwzce0-9" target="Nqwm3EvhNHWY8KDwzce0-9">
          <mxGeometry relative="1" as="geometry" />
        </mxCell>
        <mxCell id="Nqwm3EvhNHWY8KDwzce0-57" value="&lt;font style=&quot;font-size: 16px;&quot;&gt;Gerar relatórios de auditoria&lt;/font&gt;" style="ellipse;whiteSpace=wrap;html=1;" vertex="1" parent="1">
          <mxGeometry x="364" y="300" width="120" height="80" as="geometry" />
        </mxCell>
        <mxCell id="Nqwm3EvhNHWY8KDwzce0-58" value="" style="endArrow=classic;html=1;rounded=0;exitX=0.5;exitY=0.5;exitDx=0;exitDy=0;exitPerimeter=0;entryX=0;entryY=0.5;entryDx=0;entryDy=0;" edge="1" parent="1" source="Nqwm3EvhNHWY8KDwzce0-4" target="Nqwm3EvhNHWY8KDwzce0-57">
          <mxGeometry width="50" height="50" relative="1" as="geometry">
            <mxPoint x="150" y="185" as="sourcePoint" />
            <mxPoint x="200" y="135" as="targetPoint" />
          </mxGeometry>
        </mxCell>
        <mxCell id="Nqwm3EvhNHWY8KDwzce0-60" value="&lt;span style=&quot;font-size: 16px;&quot;&gt;Visualizar histórico do&amp;nbsp; prontuario&lt;/span&gt;" style="ellipse;whiteSpace=wrap;html=1;" vertex="1" parent="1">
          <mxGeometry x="385.12" y="850" width="152.75" height="80" as="geometry" />
        </mxCell>
        <mxCell id="Nqwm3EvhNHWY8KDwzce0-61" value="" style="endArrow=classic;html=1;rounded=0;entryX=0;entryY=0.5;entryDx=0;entryDy=0;exitX=0.5;exitY=0.5;exitDx=0;exitDy=0;exitPerimeter=0;" edge="1" parent="1" source="Nqwm3EvhNHWY8KDwzce0-50" target="Nqwm3EvhNHWY8KDwzce0-60">
          <mxGeometry width="50" height="50" relative="1" as="geometry">
            <mxPoint x="305.5" y="920" as="sourcePoint" />
            <mxPoint x="355.5" y="870" as="targetPoint" />
          </mxGeometry>
        </mxCell>
        <mxCell id="Nqwm3EvhNHWY8KDwzce0-63" value="&lt;div&gt;Secretaria&lt;/div&gt;&lt;div&gt;(Admin. Parcial)&lt;/div&gt;" style="shape=umlActor;verticalLabelPosition=bottom;verticalAlign=top;html=1;fontSize=15;" vertex="1" parent="1">
          <mxGeometry x="71.5" y="380" width="40" height="70" as="geometry" />
        </mxCell>
      </root>
    </mxGraphModel>
  </diagram>
</mxfile>
